# xmcd
#
# Track frame offsets:
#	150
#	14047
#	27415
#	46412
#	59017
#	74527
#	88097
#	105377
#	119852
#	136652
#	150465
#	167782
#
# Disc length: 2423
#
# Revision: 1
# Processed by: cddbd v1.5.1PL0 Copyright (c) Steve Scherf et al.
# Submitted via: MusicManager v5.2.0.0
# Normalized: r0:DSETVAR1
#
DISCID=aa09750c
DTITLE=Various Artist - Love Can't Ever Get Better Than This
DYEAR=1996
DGENRE=country
TTITLE0=George Jones - Loving you could never be better
TTITLE1=Mickey Gilley - True love ways
TTITLE2=Exile - I can't get close enough
TTITLE3=Charley  McClain - The very best is you
TTITLE4=T G Sheppard - You're my first lady
TTITLE5=Willie Nelson - I love you a thousand ways
TTITLE6=Ray Price - You'r the best thing that ever happened to me
TTITLE7=David Houston and Barbara Mandrell - I love you, I love you
TTITLE8=Janie Frickie - Always have, always will
TTITLE9=Larry Gatlin and the Gatlin Bros - Love of a lifetime
TTITLE10=Ricky Skaggs a& Sharon White - Love can't ever get better than this
TTITLE11=Ricky Van Shelton - I'll leave this world loving you
EXTD=
EXTT0=
EXTT1=
EXTT2=
EXTT3=
EXTT4=
EXTT5=
EXTT6=
EXTT7=
EXTT8=
EXTT9=
EXTT10=
EXTT11=
PLAYORDER=
